<svg id="Layer_1" data-name="Layer 1" xmlns="http://www.w3.org/2000/svg" viewBox="0 0 1200 580"><title>backgroundPurpleOnlyTop</title><path d="M734.57,34.37q-43,92.6,16.27,116.1c59.32,23.5,200.35,32.91,259.3,83.9s238.7,11.57,269.44-76S1365.67-64,1073.81-64Q781.94-64,734.57,34.37Z" fill="#fffa72"/><path d="M312.35,156.24Q341.53,415.49,545.6,481.3c204.08,65.83,614.17,92.16,861.68,234.94s687.05,32.4,631.64-212.66S1920.41-119.2,1103.2-119.2Q286-119.2,312.36,156.24Z" fill="#17141d"/><path d="M344,146.09Q357.69,391.43,547.3,453.73C736.91,516,1123.62,541,1350.19,676.09s648.51,30.66,609.24-201.27S1880.73-114.6,1107.3-114.6Q333.87-114.6,344,146.09Z" fill="#27213d"/><path d="M376.49,135.93q.33,231.46,176,290.24c175.69,58.76,539.24,82.27,746.07,209.76s610.23,28.93,585.05-189.87S1839.56-110,1109.91-110q-729.66,0-733.42,245.93Z" fill="#322c4f"/><path d="M409.69,125.77q-11,217.59,151.25,272.83c162.27,55.24,502.85,77.34,691,197.17s572.2,27.2,559.25-178.48S1797-105.4,1111.15-105.4q-685.88,0-701.46,231.17Z" fill="#353056"/><path d="M443.57,115.62Q423,319.31,572.34,371c149.31,51.71,467.11,72.4,637.64,184.59s534.4,25.46,532-167.09,11.29-489.33-630.8-489.33Q469-100.8,443.57,115.62Z" fill="#3f3c66"/><path d="M478.08,105.46q-28.38,189.81,108.4,238c136.79,48.19,432,67.46,585.8,172s496.81,23.73,503.26-155.69,32.71-456-565.6-456q-598.32,0-631.86,201.66Z" fill="#45446d"/><path d="M513.18,95.31q-34.63,175.91,90,220.58c124.67,44.66,397.42,62.53,535.39,159.42S1598,497.29,1611.85,331s50.34-422.6-504.2-422.6q-554.54,0-594.47,186.91Z" fill="#4a4a72"/><path d="M548.83,85.15q-39.41,162,73.52,203.17c112.92,41.13,363.37,57.59,486.33,146.83s422.2,20.25,442.05-132.91S1615.09-87,1104.33-87Q593.58-87,548.83,85.15Z" fill="#53537a"/><path d="M585,75q-42.74,148.13,58.8,185.75C745.33,298.36,973.64,313.4,1082.35,395S1467.53,413.51,1492,273.48,1567-82.4,1100-82.4q-467,0-515,157.4Z" fill="#5b5b84"/><path d="M621.68,64.84Q577,199.09,667.44,233.18c90.5,34.08,296.79,47.72,392,121.66s348.31,16.78,376.18-110.13S1518-77.8,1094.8-77.8q-423.19,0-473.11,142.64Z" fill="#666691"/><path d="M658.85,54.68Q613.43,175,693.21,205.61C773,236.17,957.4,248.39,1039.84,314.68s311.62,15.05,341.63-98.73S1468.09-73.2,1088.67-73.2q-379.43,0-429.82,127.88Z" fill="#70709b"/><path d="M696.48,44.53Q651.63,151,721,178c69.39,27,232.05,37.84,302.41,96.49s275.08,13.31,306-87.34S1417.31-68.6,1081.67-68.6Q746-68.6,696.48,44.53Z" fill="#8888b7"/></svg>