<?xml version="1.0" encoding="UTF-8"?><!DOCTYPE svg PUBLIC "-//W3C//DTD SVG 1.1//EN" "http://www.w3.org/Graphics/SVG/1.1/DTD/svg11.dtd"><svg fill="#6c63ff" xmlns="http://www.w3.org/2000/svg" xmlns:xlink="http://www.w3.org/1999/xlink" version="1.1" id="Upload_to_cloud" x="0px" y="0px" viewBox="0 0 20 20" xml:space="preserve"><path d="M15.213 6.639c-.276 0-.546.025-.809.068C13.748 4.562 11.716 3 9.309 3c-2.939 0-5.32 2.328-5.32 5.199 0 .256.02.508.057.756a3.567 3.567 0 0 0-.429-.027C1.619 8.928 0 10.51 0 12.463S1.619 16 3.617 16H8v-4H5.5L10 7l4.5 5H12v4h3.213C17.856 16 20 13.904 20 11.32c0-2.586-2.144-4.681-4.787-4.681z"/><metadata><rdf:RDF xmlns:rdf="http://www.w3.org/1999/02/22-rdf-syntax-ns#" xmlns:rdfs="http://www.w3.org/2000/01/rdf-schema#" xmlns:dc="http://purl.org/dc/elements/1.1/"><rdf:Description about="https://iconscout.com/legal#licenses" dc:title="upload,to,cloud" dc:description="upload,to,cloud" dc:publisher="Iconscout" dc:date="2017-09-14" dc:format="image/svg+xml" dc:language="en"><dc:creator><rdf:Bag><rdf:li>Daniel Bruce</rdf:li></rdf:Bag></dc:creator></rdf:Description></rdf:RDF></metadata></svg>