<svg xmlns="http://www.w3.org/2000/svg" viewBox="0 0 32.19 31.99" fill="rgba(63, 189, 113, 0.8)">
    {/* <defs><clipPath id="clip-path" transform="translate(-943.91 -524)"><rect x="944" y="524" width="32" height="32" fill="none" /></clipPath></defs> */}
    {/* <title>Clapperboard-padlocl</title> */}
    <g id="Layer_1" data-name="Layer 1">
      <g clipPath="url(#clip-path)">
        <path d="M973,556H947a3,3,0,0,1-3-3V531h32v22a3,3,0,0,1-3,3Zm-27-23v20a1,1,0,0,0,1,1h26a1,1,0,0,0,1-1V533Zm0,0" transform="translate(-943.91 -524)" />
        <rect x="943.93" y="525.5" width="32.14" height="2" transform="translate(-988.81 -432.22) rotate(-5.35)" />
      </g>
      <rect x="1.09" y="11.99" width="30" height="2" />
      <rect x="943.96" y="533.5" width="7.07" height="2" transform="translate(-1044.34 302.53) rotate(-45)" />
      <rect x="949.96" y="533.5" width="7.07" height="2" transform="translate(-1042.58 306.77) rotate(-45)" />
      <rect x="955.96" y="533.5" width="7.07" height="2" transform="translate(-1040.82 311.01) rotate(-45)" />
      <rect x="961.96" y="533.5" width="7.07" height="2" transform="translate(-1039.06 315.25) rotate(-45)" />
      <rect x="967.96" y="533.5" width="7.07" height="2" transform="translate(-1037.31 319.5) rotate(-45)" />
    </g>
    <g id="Layer_2" data-name="Layer 2">
      <path d="M965,544.3h-8.1a.9.9,0,0,0-.9.9v5.85a.9.9,0,0,0,.9.9H965a.91.91,0,0,0,.9-.9V545.2a.9.9,0,0,0-.9-.9Zm-8.1.9H965v5.85h-8.1Zm.9-1.8a.43.43,0,0,0,.45-.45v-.9a1.81,1.81,0,0,1,1.8-1.8h1.8a1.81,1.81,0,0,1,1.8,1.8v.9a.45.45,0,1,0,.9,0v-.9a2.71,2.71,0,0,0-2.7-2.7h-1.8a2.7,2.7,0,0,0-2.7,2.7v.9a.43.43,0,0,0,.45.45Z" transform="translate(-943.91 -524)" />
      <path d="M961,546.55a.43.43,0,0,0-.45.45v2.7a.45.45,0,1,0,.9,0V547a.43.43,0,0,0-.45-.45Z" transform="translate(-943.91 -524)" />
    </g>
  </svg>